<?xml version="1.0" encoding="utf-8"?>
<!-- Generator: Adobe Illustrator 19.1.0, SVG Export Plug-In . SVG Version: 6.00 Build 0)  -->
<svg version="1.1" id="Fitness_Icon" xmlns="http://www.w3.org/2000/svg" xmlns:xlink="http://www.w3.org/1999/xlink" x="0px"
	 y="0px" viewBox="75 -75 200 200" style="enable-background:new 75 -75 200 200;" xml:space="preserve">
<style type="text/css">
	.st0{fill:#C227B9;}
</style>
<g>
	<path class="st0" d="M173.8-63.8c-49.1,0-89,39.9-89,89s39.9,89,89,89s89-39.9,89-89S222.9-63.8,173.8-63.8L173.8-63.8z
		 M173.8,105.7c-44.4,0-80.5-36.1-80.5-80.5s36.1-80.5,80.5-80.5s80.5,36.1,80.5,80.5S218.2,105.7,173.8,105.7L173.8,105.7z"/>
	<rect x="149.4" y="16.7" class="st0" width="48.7" height="17"/>
	<path class="st0" d="M116.6,12v1.7c-0.6-0.4-1.3-0.7-2.1-0.7c-2.3,0-4.2,1.9-4.2,4.2v15.9c0,2.3,1.9,4.2,4.2,4.2
		c0.8,0,1.5-0.3,2.1-0.7v1.7c0,4.3,3.2,7.8,7.4,8.4V3.6C119.8,4.1,116.6,7.6,116.6,12L116.6,12z"/>
	<path class="st0" d="M233.1,13c-0.8,0-1.5,0.3-2.1,0.7V12c0-4.3-3.2-7.8-7.4-8.4v43.2c4.2-0.5,7.4-4,7.4-8.4v-1.7
		c0.6,0.4,1.3,0.7,2.1,0.7c2.3,0,4.2-1.9,4.2-4.2V17.3C237.4,14.9,235.5,13,233.1,13L233.1,13z"/>
	<path class="st0" d="M136.7-9.7c-4.7,0-8.5,3.8-8.5,8.5v53c0,4.7,3.8,8.5,8.5,8.5s8.5-3.8,8.5-8.5v-53
		C145.2-5.9,141.4-9.7,136.7-9.7L136.7-9.7z"/>
	<path class="st0" d="M210.9-9.7c-4.7,0-8.5,3.8-8.5,8.5v53c0,4.7,3.8,8.5,8.5,8.5s8.5-3.8,8.5-8.5v-53
		C219.4-5.9,215.6-9.7,210.9-9.7L210.9-9.7z"/>
</g>
</svg>
